<svg xmlns="http://www.w3.org/2000/svg" viewBox="0 0 900 900" role="img" aria-labelledby="title desc">
  <title id="title">Elense logo</title>
  <desc id="desc">Two oak leaves above the Elense wordmark.</desc>
  <g fill="#8b4a1f">
    <path d="M381 314c-34-33-91-36-130-17 25 9 33 22 37 31-29-6-57-1-77 13 22 5 35 14 43 24-24 1-43 10-54 24 20 6 38 8 54 9-20 9-27 23-24 38 22 8 42 4 60-5-9 18-6 35 10 47 19 1 30-12 35-29 7 20 21 35 42 43 16-17 14-37 5-58-3-8 2-17 11-20 10-3 20 2 23 12 13 30 19 68-2 102-10 16-5 37 12 47s38 5 48-12c34-56 30-118 3-171-8-16-18-31-30-45-8-9-22-10-31-2-10 8-11 23-3 32 11 13 20 27 27 41 12 25 18 50 16 75-9-15-14-33-16-52-2-14-8-28-18-38-10-10-24-15-38-14-24 2-44 18-53 40-8-16-14-32-15-47-2-22-12-43-29-57z"/>
    <path d="M519 314c34-33 91-36 130-17-25 9-33 22-37 31 29-6 57-1 77 13-22 5-35 14-43 24 24 1 43 10 54 24-20 6-38 8-54 9 20 9 27 23 24 38-22 8-42 4-60-5 9 18 6 35-10 47-19 1-30-12-35-29-7 20-21 35-42 43-16-17-14-37-5-58 3-8-2-17-11-20-10-3-20 2-23 12-13 30-19 68 2 102 10 16 5 37-12 47s-38 5-48-12c-34-56-30-118-3-171 8-16 18-31 30-45 8-9 22-10 31-2 10 8 11 23 3 32-11 13-20 27-27 41-12 25-18 50-16 75 9-15 14-33 16-52 2-14 8-28 18-38 10-10 24-15 38-14 24 2 44 18 53 40 8-16 14-32 15-47 2-22 12-43 29-57z"/>
  </g>
  <text x="450" y="695" text-anchor="middle" fill="#8b4a1f" font-family="Georgia, 'Times New Roman', serif" font-size="148" letter-spacing="1">Elense</text>
</svg>
